<?xml version="1.0" encoding="utf-8"?>
<!-- Generator: Adobe Illustrator 26.0.3, SVG Export Plug-In . SVG Version: 6.00 Build 0)  -->
<svg version="1.0" id="katman_1" xmlns="http://www.w3.org/2000/svg" xmlns:xlink="http://www.w3.org/1999/xlink" x="0px" y="0px"
	 viewBox="0 0 800 600" style="enable-background:new 0 0 800 600;" xml:space="preserve">
<style type="text/css">
	.st0{fill:#5E4294;}
	.st1{fill:#7457A0;}
	.st2{fill:#9B7FB9;}
	.st3{fill:url(#SVGID_1_);}
	.st4{fill:url(#SVGID_00000015319281296565554290000002044867268656091036_);}
	.st5{fill:url(#SVGID_00000129188274480225037070000003683051811857178498_);}
	.st6{fill:url(#SVGID_00000057866470987348340010000015726565994296762505_);}
	.st7{fill:#2E3137;}
</style>
<g>
	<polygon class="st0" points="264.7,310.5 214.3,331.8 257.2,353.5 	"/>
	<polygon class="st1" points="155.9,338.8 102.1,318.6 114.6,360.9 	"/>
	<polygon class="st2" points="181.4,301 214.3,331.8 155.9,338.8 	"/>
	<polygon class="st2" points="108.7,271.8 102.1,318.6 61.6,278.2 	"/>
	
		<linearGradient id="SVGID_1_" gradientUnits="userSpaceOnUse" x1="342.6804" y1="-91.7894" x2="495.1777" y2="-91.7894" gradientTransform="matrix(1 0 0 1 -20.9449 341.3622)">
		<stop  offset="0" style="stop-color:#5E4294"/>
		<stop  offset="1" style="stop-color:#1D6FB6"/>
	</linearGradient>
	<polygon class="st3" points="264.7,310.5 397.3,188.6 456.9,267.6 	"/>
	
		<linearGradient id="SVGID_00000009591064750548339690000013447768454276518812_" gradientUnits="userSpaceOnUse" x1="353.0549" y1="-226.1237" x2="351.7795" y2="-75.3841" gradientTransform="matrix(1 0 0 1 -20.9449 341.3622)">
		<stop  offset="0" style="stop-color:#43A6DE"/>
		<stop  offset="1" style="stop-color:#7457A0"/>
	</linearGradient>
	<polygon style="fill:url(#SVGID_00000009591064750548339690000013447768454276518812_);" points="264.7,310.5 321.4,131 
		397.3,188.6 	"/>
	
		<linearGradient id="SVGID_00000093147568946250944420000009208168175240355722_" gradientUnits="userSpaceOnUse" x1="437.0215" y1="-163.6296" x2="404.4636" y2="-220.0206" gradientTransform="matrix(1 0 0 1 -20.9449 341.3622)">
		<stop  offset="0" style="stop-color:#66A9DC"/>
		<stop  offset="1" style="stop-color:#B3E0F7"/>
	</linearGradient>
	<polygon style="fill:url(#SVGID_00000093147568946250944420000009208168175240355722_);" points="321.4,131 456.9,131 397.3,188.6 
			"/>
	
		<linearGradient id="SVGID_00000027600172977616207300000014554589195054111881_" gradientUnits="userSpaceOnUse" x1="444.2092" y1="-207.8008" x2="462.7058" y2="-79.8599" gradientTransform="matrix(1 0 0 1 -20.9449 341.3622)">
		<stop  offset="0" style="stop-color:#43A6DE"/>
		<stop  offset="1" style="stop-color:#7457A0"/>
	</linearGradient>
	<polygon style="fill:url(#SVGID_00000027600172977616207300000014554589195054111881_);" points="456.9,267.6 456.9,131 
		397.3,188.6 	"/>
	<path class="st7" d="M716.7,363.6v12.5h-3.1v-12.5h-4.8v-2.9h12.5v2.9H716.7z"/>
	<path class="st7" d="M735,376.1v-10.3l-3.6,6.3h-1.9l-3.6-6.3v10.3h-3.1v-15.4h3.6l3.9,7.4l4.1-7.4h3.6v15.4H735z"/>
	<path class="st7" d="M320.7,444.3v-14.4l38.2-53.4h-36.5v-15.6h56.9v13.7l-38.7,54.1h39.7v15.6L320.7,444.3z"/>
	<path class="st7" d="M403.9,416.7c0.3,5.7,1.7,9.6,4.1,12.2c2.4,2.4,6.3,3.6,11.6,3.6c2.7,0,5.5-0.3,8.1-1.2c2.4-0.9,4.5-2.4,6-4.5
		l11.6,8.2c-2.4,3.6-5.8,6.5-9.9,8.2c-4.1,1.9-9.6,2.7-16.6,2.7c-10.4,0-18.2-2.7-23.3-8.2s-7.7-13.7-7.7-24.7
		c0-22.6,10.1-33.9,30.3-33.9c9.1,0,15.9,2.6,20.6,7.5c4.8,5.1,7,12.5,7,22.3v7.7L403.9,416.7z M430.5,406c0-9.6-4.3-14.4-12.7-14.4
		c-2.4-0.2-4.6,0.3-6.9,1.4c-1.7,1-3.3,2.4-4.3,4.3c-1,1.9-1.9,4.8-2.6,8.7L430.5,406L430.5,406z"/>
	<path class="st7" d="M516,412.3c0,6.9-1,12.8-3.1,18c-2.1,5.1-5,9.1-8.7,11.8c-3.8,2.7-8.4,4.1-13.7,4.1c-7,0-13-2.2-18-6.5v28.4
		h-15.6v-87h14.4v6.2c2.7-2.4,5.8-4.5,9.1-5.8c3.4-1.5,7.2-2.2,11-2.1c8.1,0,14,2.7,18.3,8.4C513.9,393.3,516,401.5,516,412.3z
		 M499.9,412.5c0-6.2-1-11-3.3-14.4c-2.1-3.4-5.3-5.1-9.6-5.1c-2.7,0-5.3,0.7-7.9,1.7c-2.6,1-4.8,2.6-6.9,4.5v27.6
		c1.9,1.5,3.9,2.9,6.2,3.9c2.4,1.2,5,1.7,7.5,1.7c4.3,0,7.7-1.9,10.1-5.5C498.7,423.4,499.9,418.5,499.9,412.5L499.9,412.5z"/>
	<path class="st7" d="M567.9,444.3v-34.8c0-6.7-0.7-11.1-1.9-13.2c-1.2-2.2-3.4-3.3-6.7-3.3c-4.6,0-10.1,3.1-16.6,9.1v42.1h-15.6
		v-89.8h15.6v34.8c3.1-3.1,6.7-5.7,10.6-7.5c3.4-1.5,7.2-2.6,11-2.6c7,0,12,2.1,14.9,6c2.9,3.9,4.3,9.6,4.3,17v42.1H567.9z"/>
	<path class="st7" d="M590.8,452.9c2.9,1,6,1.7,9.1,1.7c2.2,0,4.5-0.7,6.2-2.1c1.7-1.4,3.6-4.3,5.5-8.7l1.5-3.8l-22.8-58.9h16.1
		l14.9,40.4l15.2-40.4h15.8l-27.2,67.5c-2.2,5.5-4.3,9.4-6.5,12c-1.9,2.4-4.5,4.5-7.4,5.7c-2.7,1.2-6.3,1.7-10.4,1.7
		c-4.6,0-9.1-0.7-13.5-1.9L590.8,452.9z"/>
	<path class="st7" d="M697.9,396.2c-2.1-0.9-4.1-1.4-6.3-1.2c-2.9,0-5.7,0.7-8.2,2.1c-2.9,1.7-5.7,3.6-8.1,6v41.1h-15.6v-63.2h15.6
		v9.1c2.6-2.7,5.3-5.1,8.6-7.2c3.1-1.9,6.7-2.9,10.3-2.9c3.3,0,5.5,0.3,6.9,1.2L697.9,396.2z"/>
</g>
</svg>
